<svg xmlns="http://www.w3.org/2000/svg" xmlns:xlink="http://www.w3.org/1999/xlink" width="36" height="36" viewBox="0 0 36 36">
  <defs>
    <clipPath id="clip-path">
      <path id="Path_707" data-name="Path 707" d="M0,0H20V20H0Z" transform="translate(1356 144)"/>
    </clipPath>
  </defs>
  <g id="Group_78" data-name="Group 78" transform="translate(-1348 -136)">
    <rect id="Rectangle_35" data-name="Rectangle 35" width="36" height="36" rx="8" transform="translate(1348 136)" fill="#eff6ff"/>
    <g id="Group_41" data-name="Group 41" clip-path="url(#clip-path)">
      <path id="Path_706" data-name="Path 706" d="M.833,5.833H0v-5A.837.837,0,0,1,.826,0H15.84a.825.825,0,0,1,.826.836v5h-.833v8.335a.83.83,0,0,1-.828.832H1.661a.83.83,0,0,1-.828-.832Zm13.333,0H2.5v7.5H14.167ZM1.667,1.667v2.5H15v-2.5ZM5.833,7.5h5V9.167h-5Z" transform="translate(1357.67 146.5)" fill="#3b82f6"/>
    </g>
  </g>
</svg>
