<svg xmlns="http://www.w3.org/2000/svg" xmlns:xlink="http://www.w3.org/1999/xlink" width="48" height="48" viewBox="0 0 48 48">
  <defs>
    <clipPath id="clip-path">
      <path id="Path_741" data-name="Path 741" d="M0,0H24V24H0Z" transform="translate(988 312)"/>
    </clipPath>
  </defs>
  <g id="Money" transform="translate(-976 -300)">
    <rect id="Rectangle_41" data-name="Rectangle 41" width="48" height="48" rx="8" transform="translate(976 300)" fill="#fff7ed"/>
    <g id="Group_47" data-name="Group 47" clip-path="url(#clip-path)">
      <path id="Path_740" data-name="Path 740" d="M10,20A10,10,0,1,1,20,10,10,10,0,0,1,10,20Zm0-2a8,8,0,1,0-8-8A8,8,0,0,0,10,18ZM6.5,12H12a.5.5,0,0,0,0-1H8A2.5,2.5,0,1,1,8,6H9V4h2V6h2.5V8H8A.5.5,0,1,0,8,9h4a2.5,2.5,0,0,1,0,5H11v2H9V14H6.5Z" transform="translate(990.005 314.003)" fill="#f97316"/>
    </g>
  </g>
</svg>
